<?xml version="1.0" encoding="utf-8"?>
<svg width="651" height="472" viewBox="0 0 651 472" fill="none" xmlns="http://www.w3.org/2000/svg">
  <g>
    <g transform="translate(91 52)">
      <path d="M288.945 0L294.985 0.318051L299.435 1.27223L303.249 3.18059L307.064 6.67927L309.607 9.22372L312.467 13.6766L315.011 19.0835L315.964 21.9461L316.918 28.6253L316.918 44.5283L315.964 54.7062L311.196 94.4637L308.335 117.364L307.382 123.089L307.064 123.725L309.289 123.407L331.858 123.407L337.261 124.679L342.347 127.224L346.48 130.086L348.705 132.313L351.566 136.448L352.837 139.628L353.155 141.219L353.155 145.353L352.201 148.534L350.93 149.806L348.069 150.76L330.904 150.76L309.607 152.987L303.567 153.941L303.249 159.03L302.931 172.706L302.931 185.429L303.249 194.652L304.203 205.785L306.428 221.051L307.699 226.458L310.242 233.456L313.739 240.135L314.375 241.089L315.011 243.634L315.011 245.86L314.375 247.768L313.739 247.768L313.421 249.041L312.785 249.041L312.15 250.313L310.56 252.221L308.017 253.493L303.567 255.084L296.892 255.084L292.441 254.13L289.581 253.175L288.945 252.857L288.945 252.221L287.356 251.903L286.084 250.631L283.541 249.041L283.541 248.404L282.27 247.768L279.091 244.27L275.912 238.863L273.051 231.865L271.144 223.278L269.873 213.736L268.919 202.922L268.601 196.561L268.601 166.981L268.919 161.256L259.383 164.119L246.35 168.254L238.085 171.116L229.503 174.297L217.424 179.068L211.066 181.93L208.524 187.019L204.709 196.561L200.577 206.739L196.444 217.553L192.948 227.094L190.087 235.682L188.18 238.863L185.955 240.771L182.776 242.043L181.504 242.361L176.101 242.361L171.015 240.453L167.836 238.863L165.611 236.636L163.386 233.138L162.432 230.275L162.432 223.278L163.704 219.143L165.929 214.054L170.379 204.194L171.968 200.696L166.882 203.24L162.75 205.785L158.3 208.329L155.121 210.555L150.035 213.418L145.585 216.281L143.678 217.871L142.406 221.051L136.685 241.407L132.552 255.084L126.195 274.485L121.109 288.48L116.659 299.612L112.526 309.472L107.44 319.968L104.262 326.011L100.13 333.644L96.9507 339.051L95.0435 341.914L93.1362 344.458L90.9112 347.639L89.9576 349.229L88.6861 350.502L86.4609 353.364L83.6001 357.181L81.375 359.725L80.7392 359.725L80.1036 360.997L79.4677 360.997L79.15 361.952L78.5141 361.952L77.8784 363.224L74.6997 366.405L72.1567 368.631L68.0244 372.129L64.8457 374.356L61.3491 376.582L54.9917 380.399L49.9058 382.625L41.3233 385.17L40.6875 385.488L37.1909 385.806L27.9727 385.806L22.2509 383.898L22.2509 383.262L20.0259 382.944L17.8008 381.99L17.8008 381.353L15.8936 380.717L14.622 379.763L14.622 379.127L13.3506 378.809L10.172 375.946L7.31114 372.448L4.76808 368.949L2.22501 363.86L0.635834 358.135L0 351.774L0 345.095L0.635834 340.006L2.54308 333.326L5.08582 326.647L10.172 316.151L12.7148 311.698L16.5292 305.655L20.0259 300.566L24.1582 295.159L26.3833 292.297L29.2441 288.798L32.7407 284.663L35.6016 281.165L44.8198 271.305L50.2236 265.898L52.4487 263.353L62.6206 253.175L65.1636 250.949L68.9781 247.132L71.521 244.906L75.3355 241.089L78.832 238.227L81.6928 235.364L84.8716 232.82L88.0503 229.957L91.5469 227.094L95.6792 223.596L100.13 220.097L105.215 215.962L109.03 213.1L112.209 210.555L113.798 208.965L115.387 205.148L118.884 195.289L120.473 189.882L121.427 186.701L121.745 186.065L120.473 186.701L119.202 188.927L118.884 190.518L117.612 190.2L116.659 191.154L113.798 196.243L110.937 199.741L108.394 202.922L104.897 206.739L102.672 209.283L97.5864 214.69L94.0898 217.871L89.6397 221.369L85.5073 224.55L80.7392 227.413L76.2891 229.639L71.521 230.911L66.435 230.911L59.7598 229.321L54.6738 226.776L50.5415 223.914L47.045 220.097L44.1841 215.644L42.9126 211.509L42.2769 206.421L42.2769 196.243L42.9126 188.291L44.1841 180.34L46.7271 169.208L49.5879 159.03L53.4024 147.262L58.1704 134.539L61.6671 125.634L67.7066 111.321L71.2031 103.687L74.3818 97.008L77.2427 93.1914L80.7392 90.965L83.6001 90.0108L88.6861 90.0108L92.8184 91.283L96.3149 93.5094L99.4936 96.69L102.037 100.825L103.308 104.323L103.626 107.504L103.308 108.458L102.355 113.547L99.8115 120.863L93.772 134.539L88.0503 148.216L83.2822 161.574L80.7392 169.844L78.5141 179.068L75.9712 191.472L75.3355 194.652L78.5141 192.744L83.2822 188.609L90.9112 180.976L93.1362 178.431L96.9507 173.979L100.447 169.526L104.262 164.755L106.805 161.256L115.069 149.806L119.202 143.445L121.427 139.946L125.241 133.903L131.917 122.771L136.685 114.501L141.453 105.596L144.631 99.5526L148.128 92.5553L150.989 89.3747L153.214 88.1025L156.075 87.7843L160.843 87.7843L164.339 88.4205L168.789 90.6469L172.604 94.1456L175.147 97.6442L176.736 101.461L176.736 105.596L175.465 109.412L172.286 117.046L168.789 126.588L164.657 140.582L161.479 151.714L157.664 164.119L154.167 175.569L152.578 180.022L154.167 179.386L160.843 175.569L176.418 166.345L184.047 161.892L185.637 159.984L187.544 155.531L193.266 141.855L198.987 128.814L204.391 117.364L209.477 107.186L212.656 101.143L217.742 91.283L221.556 84.2858L225.689 76.6523L233.953 62.0216L238.721 53.7521L241.9 48.345L246.668 40.7116L254.933 28.3073L257.794 24.4906L260.972 20.3558L264.469 16.221L266.694 13.6766L271.462 8.58761L275.277 5.08894L279.409 1.90833L283.541 0.636116L288.945 0ZM281.952 49.9353L281.316 49.6172L279.409 50.8895L277.184 54.0701L274.958 57.5687L273.369 59.4771L272.097 62.9758L270.508 63.6119L268.601 67.4286L266.058 71.8814L264.151 74.4259L260.972 80.151L256.84 87.1483L251.118 97.6442L247.622 104.642L243.807 111.639L240.628 118.318L235.543 129.132L230.775 139.628L230.457 141.854L250.482 135.175L260.972 131.995L268.919 130.086L271.78 129.132L272.734 115.456L274.323 97.3262L277.502 73.4716L281.316 51.5256L281.952 49.9353ZM103.308 250.313L104.262 250.313L101.401 256.038L97.9045 265.897L94.7258 274.167L90.2756 284.981L86.779 292.933L80.7393 305.655L76.9249 312.652L71.839 320.922L68.0245 326.647L65.1637 330.464L61.6671 334.917L58.1704 338.733L55.9454 341.278L50.2237 347.003L46.7271 349.865L43.2305 352.41L38.4625 355.272L34.33 357.181L32.4228 357.181L31.1514 355.908L31.1514 350.82L32.4228 342.232L34.0122 336.825L38.1445 327.283L40.6875 322.194L45.4556 313.924L48.3165 309.472L51.4951 305.337L54.356 300.884L55.9454 299.294L57.8526 296.749L60.3956 293.251L61.9849 291.66L63.2564 289.752L64.8457 288.162L66.1172 286.572L67.0709 286.253L68.6602 283.709L70.2496 283.391L70.8854 282.119L73.1104 279.574L74.6998 277.666L79.4679 272.895L81.6929 270.351L92.5006 259.536L95.0436 257.31L98.858 253.493L102.037 250.949L103.308 250.313Z" fill="#CB2723" fill-rule="evenodd" transform="translate(160.436 11.294)" />
      <g transform="translate(9.765 5.887)">
        <path d="M159.253 0L144.631 0L137.003 0.636117L132.234 1.90834L128.102 3.81671L124.288 5.08895L120.473 6.67924L111.891 10.814L102.672 16.221L98.2222 19.4016L93.4541 22.9003L85.5074 29.2614L83.2822 31.4879L80.7393 33.7143L71.521 42.938L68.0244 46.7547L63.5743 51.5256L60.7135 55.0243L56.8989 59.477L53.4024 63.9299L49.5879 69.0189L45.4556 74.7439L40.3696 81.7412L38.1446 85.2399L34.648 90.6469L30.8335 97.008L25.7476 105.914L21.9331 112.911L17.165 123.089L12.7149 133.903L7.31104 149.806L4.76807 159.03L2.2251 170.48L0.63574 180.34L0 186.701L0 204.194L0.317873 208.965L1.27149 215.326L2.86084 222.005L5.08594 228.685L7.31104 234.092L9.53614 237.908L13.6685 245.224L14.6221 245.542L14.6221 246.178L15.8936 247.45L20.3438 252.539L21.6152 252.857L21.6152 253.493L22.5689 254.447L23.8403 254.766L23.8403 255.402L24.794 255.402L24.794 256.038L25.7476 256.038L26.0654 256.992L27.3369 258.264L28.9263 258.582L29.2441 259.536L30.5156 259.218L30.8335 260.491L33.6943 262.081L35.6016 262.717L35.6016 263.353L37.5088 263.989L40.6875 265.261L42.9126 265.579L42.9126 266.216L43.5484 266.534L46.4092 266.852L50.8594 268.124L56.8989 268.76L61.667 268.76L68.3423 268.442L73.7462 267.488L81.0571 265.261L83.6001 264.307L87.4146 262.717L93.1363 260.172L98.2222 257.628L99.1758 256.038L100.447 255.72L102.672 254.766L102.99 253.493L106.169 252.539L107.441 250.631L109.983 249.359L110.937 247.45L113.48 247.45L114.752 249.359L116.341 253.175L118.566 256.674L120.791 259.854L124.606 264.943L126.831 267.488L130.645 271.305L131.599 271.623L131.917 272.577L135.413 274.803L137.003 276.393L138.274 276.712L138.274 277.348L140.817 278.62L143.678 279.574L144.314 280.21L147.81 281.482L153.532 282.755L158.3 282.755L160.843 282.437L163.068 281.801L167.2 279.892L170.379 277.666L171.968 275.757L173.558 272.895L173.558 269.396L173.24 268.124L172.286 266.216L170.697 264.307L167.2 261.445L163.704 258.9L160.843 256.356L158.3 254.129L154.168 249.994L151.942 247.132L149.717 244.588L148.128 242.679L144.949 237.908L142.724 234.728L141.453 232.183L140.499 230.911L137.003 223.596L136.685 221.687L138.274 218.507L140.499 215.962L143.996 211.509L145.903 208.965L150.035 203.558L153.85 198.151L157.664 193.062L160.525 188.927L163.704 184.156L167.2 178.749L172.286 170.48L176.736 162.846L180.551 155.849L183.73 149.806L187.544 141.854L192.948 129.768L197.398 118.318L201.213 106.868L203.755 97.008L205.98 86.5121L207.252 76.0162L207.57 68.7008L207.57 62.6577L207.252 57.8868L206.298 51.2076L204.391 42.938L202.802 37.849L202.484 36.8949L201.213 35.6226L198.67 30.2156L195.173 24.1725L194.537 24.1725L194.537 23.2183L193.901 22.9003L192.312 20.3558L190.087 17.8113L186.908 14.6307L183.73 12.4043L182.14 10.814L178.961 8.5876L177.372 7.63342L173.876 5.40701L170.379 3.81671L168.79 2.22641L165.293 0.954171L159.253 0ZM160.525 27.3531L157.664 27.3531L154.803 27.9892L146.856 30.5337L144.314 32.1239L138.274 34.9865L133.506 38.1671L130.009 40.3935L126.831 42.6199L123.334 45.1644L117.294 49.6172L114.752 51.8437L110.301 55.3423L106.487 59.159L103.944 61.3854L98.8579 66.4744L95.3613 70.2911L91.8648 74.4259L89.9576 76.9703L89.0039 77.2884L87.7325 79.5148L87.0967 80.7871L86.4609 80.7871L84.5537 83.0135L83.918 84.2857L83.2822 84.2857L80.7393 88.1024L79.1499 89.3747L78.832 90.3289L76.9248 92.5553L73.1103 98.2804L71.5211 100.189L68.6601 104.642L66.1172 108.14L64.8457 110.049L61.9849 114.819L60.0777 118.318L57.8526 121.817L48.6343 140.264L43.8662 151.396L41.0054 159.03L37.1909 170.48L34.9658 178.749L32.7407 189.245L31.7871 197.833L31.7871 206.739L32.4229 212.146L33.3765 216.598L35.2837 222.005L37.5088 226.776L39.416 230.275L40.3696 231.547L42.2769 234.728L44.1841 236L45.7735 237.908L50.5415 240.771L53.4024 241.407L58.8062 241.725L64.5278 241.407L67.0708 240.771L72.1567 239.181L79.1499 235.364L85.5073 230.911L90.5933 226.776L93.1362 224.55L96.3149 221.687L101.401 216.916L102.355 215.326L102.037 212.782L99.4937 202.286L97.9043 194.652L96.3149 179.067L96.3149 172.388L97.2686 169.526L98.8579 167.617L101.401 165.709L104.58 164.437L109.666 164.437L111.255 164.755L115.705 166.981L118.566 170.162L120.791 174.615L122.38 180.34L124.288 185.747L124.923 186.383L126.195 185.429L128.738 181.612L131.599 177.159L135.413 171.752L138.91 166.345L142.724 160.302L145.585 155.213L150.035 147.58L153.214 141.218L157.346 131.995L160.207 125.633L164.022 115.138L166.882 105.914L170.379 91.9191L172.922 77.9246L173.875 69.0189L173.875 58.2048L173.24 49.9353L172.604 46.4367L170.061 37.849L166.247 30.8517L162.75 27.6711L160.525 27.3531Z" fill="#CB2723" fill-rule="evenodd" />
      </g>
    </g>
  </g>
</svg>