<?xml version="1.0" encoding="UTF-8"?>
<svg version="1.1" viewBox="0 0 2048 1484" width="651" height="472" xmlns="http://www.w3.org/2000/svg">
  <path transform="translate(1700,199)" d="m0 0 19 1 14 3 12 6 12 11 8 8 9 14 8 17 3 9 3 21v50l-3 32-15 125-9 72-3 18-1 2 7-1h71l17 4 16 8 13 9 7 7 9 13 4 10 1 5v13l-3 10-4 4-9 3h-54l-67 7-19 3-1 16-1 43v40l1 29 3 35 7 48 4 17 8 22 11 21 2 3 2 8v7l-2 6h-2l-1 4h-2l-2 4-5 6-8 4-14 5h-21l-14-3-9-3-2-1v-2l-5-1-4-4-8-5v-2l-4-2-10-11-10-17-9-22-6-27-4-30-3-34-1-20v-93l1-18-30 9-41 13-26 9-27 10-38 15-20 9-8 16-12 30-13 32-13 34-11 30-9 27-6 10-7 6-10 4-4 1h-17l-16-6-10-5-7-7-7-11-3-9v-22l4-13 7-16 14-31 5-11-16 8-13 8-14 8-10 7-16 9-14 9-6 5-4 10-18 64-13 43-20 61-16 44-14 35-13 31-16 33-10 19-13 24-10 17-6 9-6 8-7 10-3 5-4 4-7 9-9 12-7 8h-2l-2 4h-2l-1 3h-2l-2 4-10 10-8 7-13 11-10 7-11 7-20 12-16 7-27 8-2 1-11 1h-29l-18-6v-2l-7-1-7-3v-2l-6-2-4-3v-2l-4-1-10-9-9-11-8-11-8-16-5-18-2-20v-21l2-16 6-21 8-21 16-33 8-14 12-19 11-16 13-17 7-9 9-11 11-13 9-11 29-31 17-17 7-8 32-32 8-7 12-12 8-7 12-12 11-9 9-9 10-8 10-9 11-9 13-11 14-11 16-13 12-9 10-8 5-5 5-12 11-31 5-17 3-10 1-2-4 2-4 7-1 5-4-1-3 3-9 16-9 11-8 10-11 12-7 8-16 17-11 10-14 11-13 10-15 9-14 7-15 4h-16l-21-5-16-8-13-9-11-12-9-14-4-13-2-16v-32l2-25 4-25 8-35 9-32 12-37 15-40 11-28 19-45 11-24 10-21 9-12 11-7 9-3h16l13 4 11 7 10 10 8 13 4 11 1 10-1 3-3 16-8 23-19 43-18 43-15 42-8 26-7 29-8 39-2 10 10-6 15-13 24-24 7-8 12-14 11-14 12-15 8-11 26-36 13-20 7-11 12-19 21-35 15-26 15-28 10-19 11-22 9-10 7-4 9-1h15l11 2 14 7 12 11 8 11 5 12v13l-4 12-10 24-11 30-13 44-10 35-12 39-11 36-5 14 5-2 21-12 49-29 24-14 5-6 6-14 18-43 18-41 17-36 16-32 10-19 16-31 12-22 13-24 26-46 15-26 10-17 15-24 26-39 9-12 10-13 11-13 7-8 15-16 12-11 13-10 13-4z" fill="#CB2723"/>
  <path transform="translate(772,182)" d="m0 0h46l19 3 11 4 5 5 11 5 11 7 5 3 10 7 5 5 10 7 10 10 7 8 5 8 2 1v3h2l11 19 8 17 4 4 1 3 5 16 6 26 3 21 1 15v19l-1 23-4 33-7 33-8 31-12 36-14 36-17 38-12 25-10 19-12 22-14 24-16 26-11 17-10 15-9 13-12 16-12 17-13 17-6 8-11 14-7 8-5 10 1 6 11 23 3 4 4 8 7 10 10 15 5 6 7 8 7 9 13 13 8 7 9 8 11 8 11 9 5 6 3 6 1 4v11l-5 9-5 6-10 7-13 6-7 2-8 1h-15l-18-4-11-4-2-2-9-3-8-4v-2l-4-1-5-5-11-7-1-3-3-1-12-12-7-8-12-16-7-10-7-11-5-12-4-6h-8l-3 6-8 4-4 6-10 3-1 4-7 3-4 1-3 5-16 8-18 8-12 5-8 3-23 7-17 3-21 1h-15l-19-2-14-4-9-1-2-1v-2l-7-1-10-4-6-2v-2l-6-2-9-5-1-4-4 1-1-3-5-1-4-4-1-3h-3v-2h-3v-2l-4-1-3-3v-2l-4-1-14-16-4-4v-2l-3-1-13-23-7-12-7-17-7-21-5-21-3-20-1-15v-55l2-20 5-31 8-36 8-29 17-50 14-34 15-32 12-22 16-28 12-20 11-17 7-11 16-22 13-18 12-16 11-14 12-14 9-11 14-15 11-12 29-29 8-7 7-7 25-20 15-11 14-10 29-17 27-13 12-5 12-4 13-6 15-4z" fill="#CB2723"/>
  <path transform="translate(813,268)" d="m0 0h9l7 1 11 10 12 22 8 27 2 11 2 26v34l-3 28-8 44-11 44-9 29-12 33-9 20-13 29-10 20-14 24-9 16-12 19-11 17-12 17-9 14-8 12-4 3-2-2-6-17-5-18-7-14-9-10-14-7-5-1h-16l-10 4-8 6-5 6-3 9v21l5 49 5 24 8 33 1 8-3 5-16 15-10 9-8 7-16 13-20 14-22 12-16 5-8 2-18 1-17-1-9-2-15-9-5-6-6-4-6-10-3-4-6-11-7-15-6-17-3-14-2-17v-28l3-27 7-33 7-26 12-36 9-24 15-35 29-58 7-11 6-11 9-15 4-6 8-11 9-14 5-6 12-18 6-7 1-3 5-4 8-12h2l2-4 6-7h2l2-4 4-7 3-1 6-8 11-13 11-12 16-16 8-7 12-12 14-11 8-7 19-14 11-8 10-7 11-7 15-10 19-9 8-5 25-8z" fill="#FEFDFD"/>
  <path transform="translate(1116,986)" d="m0 0h3l-9 18-11 31-10 26-14 34-11 25-19 40-12 22-16 26-12 18-9 12-11 14-11 12-7 8-18 18-11 9-11 8-15 9-13 6h-6l-4-4v-16l4-27 5-17 13-30 8-16 15-26 9-14 10-13 9-14 5-5 6-8 8-11 5-5 4-6 5-5 4-5 3-1 5-8 5-1 2-4 7-8 5-6 15-15 7-8 34-34 8-7 12-12 10-8z" fill="#FDFCFC"/>
  <path transform="translate(1676,355)" d="m0 0 2 1-2 5-12 69-10 75-5 57-3 43-9 3-25 6-33 10-63 21 1-7 15-33 16-34 10-21 12-22 11-22 18-33 13-22 10-18 6-8 8-14 6-12 5-2 4-11 5-6 7-11 7-10z" fill="#FEFDFD"/>
</svg>